<svg xmlns="http://www.w3.org/2000/svg" version="1.0" width="200px" height="200px" viewBox="0 0 330.000000 380.000000" preserveAspectRatio="xMidYMid meet">
  <g transform="matrix(0.100533, 0, 0, -0.109562, -1.757868, 383.725042)" fill="#006600" stroke="none" style="">
    <path d="M1300 3220 l0 -280 455 0 c381 0 455 -2 455 -14 0 -42 -94 -330 -177 -541 -65 -165 -220 -490 -301 -628 -48 -83 -60 -96 -77 -91 -53 17 -101 14 -207 -11 -200 -47 -358 -44 -474 9 -32 15 -105 62 -163 105 -171 127 -246 155 -421 154 -131 0 -177 -16 -248 -86 -72 -71 -79 -101 -48 -203 13 -43 29 -91 35 -107 10 -25 8 -29 -30 -53 -22 -14 -46 -27 -53 -30 -7 -3 -18 -16 -25 -30 -10 -22 -7 -34 17 -82 32 -64 61 -84 111 -79 l34 3 -7 -88 c-8 -99 -9 -96 68 -164 34 -31 60 -27 122 18 l43 31 58 -50 c78 -67 177 -130 298 -189 55 -26 102 -49 104 -51 2 -1 -4 -22 -13 -46 -30 -78 -19 -115 44 -147 78 -40 132 -22 164 55 8 19 20 35 26 35 16 0 87 -37 148 -77 l52 -35 -1 -76 c0 -43 -4 -98 -8 -123 -7 -46 -7 -47 26 -63 19 -9 54 -16 78 -16 44 0 44 -1 39 -29 -9 -43 18 -86 66 -105 75 -30 119 -16 155 48 8 13 17 17 32 12 19 -6 20 -11 12 -40 -17 -61 15 -106 89 -126 72 -19 112 4 132 75 11 41 15 44 54 50 47 8 90 32 125 69 l24 26 594 0 593 0 0 280 0 280 -495 0 -495 0 0 27 c0 15 -5 40 -11 57 -11 29 4 63 246 576 141 300 269 568 285 595 15 28 123 255 239 506 l211 456 0 237 0 236 -990 0 -990 0 0 -280z m1470 -731 l0 -410 -261 -552 c-143 -304 -262 -554 -265 -556 -2 -2 -36 21 -76 52 -89 68 -251 163 -356 207 -42 19 -78 34 -80 35 -1 1 10 28 24 60 26 55 26 61 15 125 -7 37 -23 89 -35 116 l-23 50 59 99 c166 278 356 716 447 1030 17 61 36 120 41 133 10 22 10 22 260 22 l250 0 0 -411z m-2250 -633 c36 -8 81 -21 101 -30 l36 -15 -36 -180 -35 -180 20 -28 c27 -35 60 -43 106 -26 34 14 40 13 110 -17 40 -18 83 -45 95 -60 27 -33 65 -45 94 -30 15 9 43 6 117 -11 81 -18 101 -27 120 -50 27 -34 77 -39 118 -13 23 16 29 15 117 -21 161 -67 348 -164 477 -249 143 -95 266 -197 262 -217 -1 -8 -30 -94 -65 -191 -62 -177 -62 -178 -96 -184 -56 -11 -202 3 -276 26 -68 22 -73 26 -220 175 -163 166 -185 181 -400 270 -155 64 -346 161 -443 225 -176 117 -274 230 -367 426 -50 104 -128 328 -123 352 7 38 168 54 288 28z m-305 -181 c45 -138 128 -313 196 -411 124 -178 349 -334 678 -469 264 -108 271 -112 436 -280 110 -111 163 -158 200 -175 61 -28 177 -49 268 -50 37 0 67 -4 67 -8 0 -11 -39 -46 -67 -61 -51 -26 -234 -1 -324 45 -81 40 -104 60 -192 168 -130 158 -216 218 -462 327 -189 83 -325 152 -409 207 -146 96 -278 257 -367 447 -50 106 -109 269 -109 299 0 21 38 82 46 74 1 -2 19 -53 39 -113z m528 77 c15 -16 13 -29 -16 -162 -26 -114 -36 -146 -50 -148 -30 -6 -30 25 -3 166 36 182 35 181 69 144z m127 -94 c49 -33 50 -34 50 -85 0 -28 -4 -54 -9 -57 -10 -7 -86 24 -114 46 -15 12 -16 19 -5 71 7 31 16 57 20 57 5 0 31 -15 58 -32z m788 -74 c32 -39 62 -128 62 -186 0 -45 -39 -104 -66 -100 -33 6 -36 18 -15 53 39 64 23 138 -51 232 l-30 37 35 0 c29 0 41 -7 65 -36z m-81 -86 c29 -43 32 -94 8 -132 -21 -32 -24 -32 -110 -3 l-70 24 -8 48 c-4 26 -7 71 -5 99 l3 51 45 12 c45 11 45 11 79 -25 18 -21 44 -54 58 -74z m-561 -20 c-8 -125 -12 -140 -35 -136 -13 3 -16 17 -14 88 1 47 4 104 8 126 5 36 9 41 27 36 20 -5 20 -9 14 -114z m177 86 l37 -7 0 -68 c0 -59 -3 -69 -17 -69 -24 0 -132 26 -139 33 -3 3 -3 30 1 61 l7 56 37 0 c20 0 53 -3 74 -6z m147 -143 c0 -120 -3 -151 -15 -161 -12 -10 -18 -10 -30 0 -12 10 -15 41 -15 161 l0 149 30 0 30 0 0 -149z m-433 6 c-5 -15 -23 -12 -91 18 -51 22 -67 41 -50 58 10 10 146 -63 141 -76z m-719 -32 c12 -25 22 -48 22 -50 0 -10 -76 -42 -88 -38 -14 6 -42 55 -42 77 0 14 54 53 76 55 5 1 20 -19 32 -44z m932 -14 c19 -5 52 -12 73 -16 28 -4 37 -11 37 -25 0 -24 -14 -25 -94 -4 -66 17 -82 26 -72 43 9 13 11 13 56 2z m584 -165 c278 -115 556 -304 556 -377 0 -14 -3 -28 -6 -32 -3 -3 -46 27 -95 66 -167 134 -420 278 -659 375 -75 30 -96 43 -98 60 -3 21 0 21 106 -17 60 -22 149 -56 196 -75z m-1439 14 c-13 -20 -25 -9 -25 22 0 32 0 32 16 10 8 -12 12 -27 9 -32z m84 -151 c-60 -45 -69 -46 -100 -11 -39 44 -39 47 19 95 l34 27 35 -46 36 -47 -24 -18z m641 -369 l40 -20 -15 -38 c-22 -52 -28 -56 -70 -41 -48 18 -56 35 -38 82 17 42 28 45 83 17z m603 -495 c-3 -11 -12 -27 -19 -35 -13 -13 -19 -13 -52 5 -43 24 -48 38 -27 88 l16 38 44 -38 c33 -28 43 -43 38 -58z m266 -61 c2 -2 0 -18 -6 -36 -8 -30 -12 -33 -47 -32 -48 2 -71 23 -62 58 6 26 8 26 59 20 28 -4 54 -8 56 -10z" style="fill: rgb(16, 76, 140); paint-order: fill; fill-rule: evenodd;"/>
  </g>
</svg>
