<?xml version="1.0" encoding="utf-8"?>
<svg version="1.0" xmlns="http://www.w3.org/2000/svg" width="751.000000pt" height="253.000000pt" viewBox="0 0 751.000000 253.000000" preserveAspectRatio="xMidYMid meet">
  <g transform="translate(0.000000,253.000000) scale(0.100000,-0.100000)" fill="#000000" stroke="none">
    <path d="M6338 2339 c-35 -13 -42 -36 -33 -125 6 -68 5 -74 -12 -74 -11 0 -33 -15 -49 -32 -36 -39 -97 -145 -90 -157 3 -4 -6 -38 -21 -74 -22 -56 -24 -71 -15 -92 12 -26 55 -35 67 -14 4 6 14 8 22 5 11 -5 13 -2 9 10 -6 15 -4 15 10 3 15 -12 16 -11 9 10 -5 17 -4 22 5 16 9 -5 10 -1 5 16 -4 13 -11 25 -16 27 -5 2 1 22 12 44 11 22 23 38 25 35 3 -3 9 -41 13 -86 5 -47 15 -89 23 -99 9 -9 18 -41 22 -71 4 -30 13 -66 20 -80 7 -14 16 -47 20 -72 7 -45 6 -46 -49 -96 -47 -43 -55 -56 -55 -86 0 -20 5 -48 11 -64 6 -15 11 -57 10 -93 0 -40 7 -90 20 -130 19 -57 20 -71 9 -109 -11 -43 -58 -101 -90 -114 -12 -5 -11 -9 7 -25 17 -15 33 -18 89 -15 77 3 88 12 77 63 -10 48 -9 77 6 205 12 103 12 114 -7 170 -11 33 -18 63 -16 67 2 3 20 12 39 18 35 12 36 11 83 -40 26 -29 55 -68 65 -86 9 -19 24 -34 33 -34 21 0 88 -35 104 -55 8 -9 35 -27 62 -41 73 -37 121 -83 115 -111 -3 -16 0 -23 8 -19 15 5 45 -55 45 -92 0 -15 4 -33 8 -40 11 -17 40 -5 48 20 10 32 12 88 3 88 -14 0 -11 44 6 82 12 31 12 38 -1 57 -13 17 -22 20 -48 15 -31 -5 -37 -1 -104 73 -42 46 -90 88 -119 103 -26 14 -51 29 -54 33 -3 4 -11 38 -18 75 -7 36 -17 72 -22 79 -7 8 -4 21 12 42 31 43 36 115 10 165 -11 21 -18 42 -16 46 3 5 -2 25 -11 45 -11 26 -13 53 -9 94 10 95 13 103 34 92 31 -17 105 -41 127 -41 34 0 202 -120 256 -183 37 -42 55 -56 69 -52 10 3 29 -1 43 -10 l24 -16 -20 41 c-22 43 -19 61 7 40 13 -11 14 -10 9 4 -3 9 -32 28 -63 43 -31 15 -91 58 -133 96 -42 38 -98 82 -125 97 -26 16 -62 42 -79 58 -16 17 -43 34 -60 38 -39 10 -171 71 -204 96 -25 18 -27 25 -28 95 0 66 -4 79 -24 99 -28 27 -73 36 -110 23z"/>
    <path d="M5130 1315 l0 -535 100 0 100 0 0 535 0 535 -100 0 -100 0 0 -535z" style="fill: rgb(2, 136, 209);"/>
    <path d="M1430 1710 l0 -80 245 0 c135 0 245 -4 245 -8 0 -5 -28 -49 -62 -98 -34 -49 -144 -208 -245 -354 l-183 -264 0 -63 0 -63 383 2 382 3 0 80 0 80 -253 5 -254 5 246 357 246 356 0 61 0 61 -375 0 -375 0 0 -80z" style="fill: rgb(2, 136, 209);"/>
    <path d="M2582 1540 c-191 -27 -305 -197 -289 -431 10 -144 81 -249 206 -307 48 -23 70 -26 151 -27 110 0 160 13 226 58 79 55 81 64 28 125 l-47 53 -26 -25 c-37 -35 -92 -56 -150 -56 -97 0 -157 44 -185 138 l-7 22 242 0 242 0 -6 98 c-7 123 -34 199 -95 264 -67 72 -173 104 -290 88z m99 -160 c49 -14 77 -47 88 -103 l8 -47 -144 0 -144 0 7 23 c24 78 50 112 100 127 39 11 44 11 85 0z" style="fill: rgb(2, 136, 209);"/>
    <path d="M3439 1540 c-54 -9 -94 -28 -131 -63 l-28 -26 -6 40 -7 39 -88 0 -89 0 0 -375 0 -375 95 0 95 0 0 264 0 264 26 31 c25 30 88 56 115 47 8 -2 26 -7 41 -10 49 -11 53 -30 58 -321 l5 -270 98 -3 97 -3 0 265 0 264 26 31 c25 30 88 56 115 47 8 -2 26 -7 41 -10 53 -12 58 -38 58 -331 l0 -265 101 0 100 0 -3 298 c-3 278 -4 300 -24 342 -40 85 -107 123 -216 123 -79 0 -165 -36 -200 -84 l-21 -29 -23 34 c-41 60 -141 92 -235 76z" style="fill: rgb(2, 136, 209);"/>
    <path d="M4650 1541 c-44 -9 -78 -27 -112 -58 l-27 -25 -6 36 -7 36 -89 0 -89 0 0 -520 0 -521 98 3 97 3 2 145 c1 80 2 157 3 172 l0 27 52 -32 c47 -29 58 -32 132 -32 70 0 87 4 128 28 112 65 166 202 156 395 -6 109 -29 182 -78 249 -52 70 -170 113 -260 94z m92 -200 c35 -39 48 -88 48 -185 0 -93 -13 -144 -49 -186 -43 -51 -148 -54 -197 -5 -23 23 -24 28 -24 193 0 166 0 169 25 192 50 47 151 43 197 -9z" style="fill: rgb(2, 136, 209);"/>
    <path d="M5430 1519 c0 -6 56 -171 125 -367 69 -196 125 -365 125 -374 0 -10 -10 -39 -22 -64 -24 -51 -62 -74 -123 -74 l-35 0 0 -74 0 -73 31 -7 c88 -17 174 6 225 61 36 39 64 98 114 243 l43 125 -27 39 c-25 37 -37 104 -16 91 14 -9 42 54 36 80 -5 19 1 28 28 45 23 14 43 19 59 15 14 -4 28 -2 31 4 4 6 3 11 -3 11 -7 0 51 181 98 303 l11 27 -108 0 -107 0 -64 -218 c-35 -119 -67 -223 -71 -230 -4 -8 -38 90 -75 217 l-69 231 -103 0 c-67 0 -103 -4 -103 -11z" style="fill: rgb(2, 136, 209);"/>
    <path d="M6120 1143 c0 -5 11 -26 25 -48 28 -46 36 -22 8 26 -16 27 -33 38 -33 22z" style="fill: rgb(2, 136, 209);"/>
    <path d="M5997 1119 c-23 -17 -25 -23 -15 -50 9 -27 14 -30 46 -27 32 3 37 7 43 36 6 29 3 34 -21 47 -25 13 -30 13 -53 -6z" style="fill: rgb(2, 136, 209);"/>
    <path d="M6106 984 c-32 -31 -37 -50 -17 -68 17 -16 20 -15 44 13 39 47 15 97 -27 55z" style="fill: rgb(2, 136, 209);"/>
    <path d="M5910 955 c0 -34 55 -64 77 -42 23 23 -9 67 -48 67 -24 0 -29 -4 -29 -25z" style="fill: rgb(2, 136, 209);"/>
  </g>
</svg>